<svg width="24" height="24" viewBox="0 0 24 24" fill="none" xmlns="http://www.w3.org/2000/svg">
<path d="M6.16667 20C5.82963 20 5.55093 19.8867 5.33056 19.66C5.11019 19.4333 5 19.1467 5 18.8V6.8C5 6.45333 5.11019 6.16667 5.33056 5.94C5.55093 5.71333 5.82963 5.6 6.16667 5.6H10.0944C10.1852 5.13333 10.4088 4.75 10.7653 4.45C11.1218 4.15 11.5333 4 12 4C12.4667 4 12.8782 4.15 13.2347 4.45C13.5912 4.75 13.8148 5.13333 13.9056 5.6H17.8333C18.1704 5.6 18.4491 5.71333 18.6694 5.94C18.8898 6.16667 19 6.45333 19 6.8V18.8C19 19.1467 18.8898 19.4333 18.6694 19.66C18.4491 19.8867 18.1704 20 17.8333 20H6.16667ZM6.16667 18.8H17.8333V6.8H16.6667V8.6H7.33333V6.8H6.16667V18.8ZM12 6.8C12.2204 6.8 12.4051 6.72333 12.5542 6.57C12.7032 6.41667 12.7778 6.22667 12.7778 6C12.7778 5.77333 12.7032 5.58333 12.5542 5.43C12.4051 5.27667 12.2204 5.2 12 5.2C11.7796 5.2 11.5949 5.27667 11.4458 5.43C11.2968 5.58333 11.2222 5.77333 11.2222 6C11.2222 6.22667 11.2968 6.41667 11.4458 6.57C11.5949 6.72333 11.7796 6.8 12 6.8Z" fill="#E8EAED"/>
</svg>
