<svg width="74" height="54" viewBox="0 0 74 54" fill="none" xmlns="http://www.w3.org/2000/svg">
    <path d="M17.8359 53.667C13.0582 53.667 8.94705 51.9448 5.5026 48.5003C2.05816 45.0559 0.335938 40.9448 0.335938 36.167C0.335938 31.8337 1.71094 28.0142 4.46094 24.7087C7.21094 21.4031 10.7526 19.417 15.0859 18.7503C16.197 13.3614 18.8082 8.95866 22.9193 5.54199C27.0304 2.12533 31.7804 0.416992 37.1693 0.416992C43.447 0.416992 48.7109 2.68088 52.9609 7.20866C57.2109 11.7364 59.3359 17.167 59.3359 23.5003V25.5003C63.3359 25.3892 66.7248 26.6809 69.5026 29.3753C72.2804 32.0698 73.6693 35.4725 73.6693 39.5837C73.6693 43.417 72.2804 46.7225 69.5026 49.5003C66.7248 52.2781 63.4193 53.667 59.5859 53.667H39.5026C38.1693 53.667 37.0026 53.167 36.0026 52.167C35.0026 51.167 34.5026 50.0003 34.5026 48.667V27.167L27.5859 34.0837L24.0026 30.5003L37.0026 17.5003L50.0026 30.5003L46.4193 34.0837L39.5026 27.167V48.667H59.5859C62.0859 48.667 64.2248 47.7781 66.0026 46.0003C67.7804 44.2225 68.6693 42.0837 68.6693 39.5837C68.6693 37.0837 67.7804 34.9448 66.0026 33.167C64.2248 31.3892 62.0859 30.5003 59.5859 30.5003H54.3359V23.5003C54.3359 18.5559 52.6554 14.3059 49.2943 10.7503C45.9332 7.19477 41.7804 5.41699 36.8359 5.41699C31.8915 5.41699 27.7248 7.19477 24.3359 10.7503C20.947 14.3059 19.2526 18.5559 19.2526 23.5003H17.6693C14.2248 23.5003 11.3082 24.7087 8.91927 27.1253C6.53038 29.542 5.33594 32.5281 5.33594 36.0837C5.33594 39.5281 6.55621 42.4864 8.99677 44.9587C11.4373 47.4309 14.3837 48.667 17.8359 48.667H29.5026V53.667H17.8359Z" fill="#FF5101"/>
</svg>
