<svg width="24" height="24" viewBox="0 0 24 24" fill="none" xmlns="http://www.w3.org/2000/svg">
    <path d="M20.6381 17.4253L12.8998 11.7826V10.9865C14.3845 10.5579 15.4192 9.08816 15.0863 7.44348C14.8524 6.29745 13.9166 5.34389 12.7378 5.08144C10.6863 4.62652 8.8507 6.13998 8.8507 8.06461H10.6503C10.6503 7.3385 11.2532 6.75236 12 6.75236C12.7468 6.75236 13.3497 7.3385 13.3497 8.06461C13.3497 8.79947 12.7288 9.39435 11.973 9.37686C11.4871 9.36811 11.1002 9.77053 11.1002 10.2429V11.7826L3.36191 17.4253C2.66906 17.9327 3.03798 19 3.90179 19H12H20.0982C20.962 19 21.3309 17.9327 20.6381 17.4253ZM6.60119 17.2503L12 13.3136L17.3988 17.2503H6.60119Z" fill="white"/>
</svg> 