<svg width="24" height="24" viewBox="0 0 24 24" fill="none" xmlns="http://www.w3.org/2000/svg">
<path d="M6.12839 11.6817C5.9572 11.869 5.9572 12.131 6.12839 12.3183L11.1612 17.8596C11.2981 18.0468 11.572 18.0468 11.7432 17.8596L12.3937 17.1108C12.5649 16.9236 12.5649 16.6615 12.3937 16.4743L8.35378 11.9813L12.3937 7.52574C12.5649 7.33853 12.5649 7.039 12.3937 6.88924L11.7432 6.14041C11.572 5.9532 11.2981 5.9532 11.1612 6.14041L6.12839 11.6817ZM11.6063 12.3183L16.6391 17.8596C16.776 18.0468 17.0499 18.0468 17.2211 17.8596L17.8716 17.1108C18.0428 16.9236 18.0428 16.6615 17.8716 16.4743L13.8317 11.9813L17.8716 7.52574C18.0428 7.33853 18.0428 7.039 17.8716 6.88924L17.2211 6.14041C17.0499 5.9532 16.776 5.9532 16.6391 6.14041L11.6063 11.6817C11.4351 11.869 11.4351 12.131 11.6063 12.3183Z" fill="#8094A2"/>
</svg>
