<svg width="24" height="24" viewBox="0 0 24 24" fill="none" xmlns="http://www.w3.org/2000/svg">
<path d="M9.24 24L8.64 20.22C8.26 20.08 7.86 19.89 7.44 19.65C7.02 19.41 6.65 19.16 6.33 18.9L2.79 20.52L0 15.6L3.24 13.23C3.2 13.05 3.175 12.845 3.165 12.615C3.155 12.385 3.15 12.18 3.15 12C3.15 11.82 3.155 11.615 3.165 11.385C3.175 11.155 3.2 10.95 3.24 10.77L0 8.4L2.79 3.48L6.33 5.1C6.65 4.84 7.02 4.59 7.44 4.35C7.86 4.11 8.26 3.93 8.64 3.81L9.24 0H14.76L15.36 3.78C15.74 3.92 16.145 4.105 16.575 4.335C17.005 4.565 17.37 4.82 17.67 5.1L21.21 3.48L24 8.4L20.76 10.71C20.8 10.91 20.825 11.125 20.835 11.355C20.845 11.585 20.85 11.8 20.85 12C20.85 12.2 20.845 12.41 20.835 12.63C20.825 12.85 20.8 13.06 20.76 13.26L24 15.6L21.21 20.52L17.67 18.9C17.35 19.16 16.985 19.415 16.575 19.665C16.165 19.915 15.76 20.1 15.36 20.22L14.76 24H9.24ZM10.68 22.2H13.32L13.74 18.84C14.4 18.68 15.025 18.43 15.615 18.09C16.205 17.75 16.74 17.34 17.22 16.86L20.4 18.24L21.6 16.08L18.78 14.01C18.86 13.67 18.925 13.335 18.975 13.005C19.025 12.675 19.05 12.34 19.05 12C19.05 11.66 19.03 11.325 18.99 10.995C18.95 10.665 18.88 10.33 18.78 9.99L21.6 7.92L20.4 5.76L17.22 7.14C16.76 6.62 16.24 6.185 15.66 5.835C15.08 5.485 14.44 5.26 13.74 5.16L13.32 1.8H10.68L10.26 5.16C9.58 5.3 8.945 5.54 8.355 5.88C7.765 6.22 7.24 6.64 6.78 7.14L3.6 5.76L2.4 7.92L5.22 9.99C5.14 10.33 5.075 10.665 5.025 10.995C4.975 11.325 4.95 11.66 4.95 12C4.95 12.34 4.975 12.675 5.025 13.005C5.075 13.335 5.14 13.67 5.22 14.01L2.4 16.08L3.6 18.24L6.78 16.86C7.26 17.34 7.795 17.75 8.385 18.09C8.975 18.43 9.6 18.68 10.26 18.84L10.68 22.2ZM12 15.9C13.08 15.9 14 15.52 14.76 14.76C15.52 14 15.9 13.08 15.9 12C15.9 10.92 15.52 10 14.76 9.24C14 8.48 13.08 8.1 12 8.1C10.92 8.1 10 8.48 9.24 9.24C8.48 10 8.1 10.92 8.1 12C8.1 13.08 8.48 14 9.24 14.76C10 15.52 10.92 15.9 12 15.9Z" fill="white"/>
</svg>
