<svg width="14" height="16" viewBox="0 0 14 16" fill="none" xmlns="http://www.w3.org/2000/svg">
<path d="M13.7973 7.57528C14.0405 7.79415 14.0649 8.15895 13.8703 8.40214C13.6514 8.64534 13.2866 8.66966 13.0434 8.4751L12.4598 7.96439V12.0549C12.4598 13.1493 11.5843 14.0005 10.5142 14.0005H3.51013C2.41575 14.0005 1.56456 13.1493 1.56456 12.0549V7.96439L0.956572 8.4751C0.713376 8.66966 0.348581 8.64534 0.129705 8.40214C-0.0648524 8.15895 -0.0405327 7.79415 0.202664 7.57528L6.62305 2.12768C6.84192 1.95744 7.15808 1.95744 7.37696 2.12768L13.7973 7.57528ZM3.51013 12.8331H4.67748V9.56948C4.67748 9.03445 5.09091 8.5967 5.65026 8.5967H8.37406C8.90909 8.5967 9.34684 9.03445 9.34684 9.56948V12.8331H10.5142C10.9276 12.8331 11.2924 12.4927 11.2924 12.0549V6.96729L7.01216 3.34366L2.73191 6.96729V12.0549C2.73191 12.4927 3.07238 12.8331 3.51013 12.8331ZM5.84482 12.8331H8.1795V9.76404H5.84482V12.8331Z" fill="#5F5F5F"/>
</svg>
