<svg width="83" height="86" viewBox="0 0 83 86" fill="none" xmlns="http://www.w3.org/2000/svg">
    <g clip-path="url(#clip0_2915_2097)">
        <path d="M57.0343 15.6022L57.0361 15.6017C58.4877 15.2272 59.935 15.041 61.3402 15.041C71.1243 15.041 79.1497 23.2361 79.1497 33.3483C79.1497 35.3678 78.8502 37.9564 78.3287 40.426C77.8425 42.728 77.1749 44.8714 76.4097 46.3376H7.67278C6.80142 45.125 6.01125 43.1754 5.42732 40.9963C4.80634 38.6786 4.44157 36.1884 4.44157 34.2181C4.44157 26.8769 10.2547 20.9324 17.3503 20.9324C17.9806 20.9324 18.655 20.9917 19.4145 21.1208C20.3379 21.2802 21.2889 20.6645 21.4288 19.6792C23.0397 10.972 30.4846 4.66956 39.0884 4.66956C45.7903 4.66956 51.8959 8.49701 55.0308 14.6854C55.4024 15.4214 56.2204 15.8089 57.0343 15.6022ZM5.59618 49.3431L5.66619 49.4171L5.75957 49.4578L5.78503 49.4689L5.78678 49.4696L6.57313 49.816L6.57548 49.817L6.60167 49.8287L6.69899 49.8722H6.80557H6.83676H77.4264C78.0207 49.8722 78.5888 49.5919 78.9167 49.0856C80.1717 47.2099 81.0998 44.31 81.7163 41.4109C82.3368 38.4933 82.6592 35.4869 82.6592 33.3483C82.6592 21.3181 73.1364 11.5025 61.3402 11.5025C60.1012 11.5025 58.8002 11.6258 57.5212 11.8721C53.644 5.21879 46.6838 1.1311 39.0884 1.1311C29.279 1.1311 20.8219 7.90236 18.3179 17.4296C17.9896 17.4059 17.6706 17.3939 17.3503 17.3939C8.24321 17.3939 0.892578 24.9544 0.892578 34.2181C0.892578 36.369 1.29809 39.3225 2.07186 42.1284C2.84028 44.9151 4.00111 47.6654 5.57652 49.3223L5.59618 49.3431Z" fill="#FF5101" stroke="#FF5101"/>
        <path d="M41.7763 51.0029C40.8266 51.0029 40.0215 51.7903 40.0215 52.7704V83.1886C40.0215 84.1631 40.8251 84.9561 41.7763 84.9561C42.7521 84.9561 43.5705 84.1782 43.5705 83.1886V52.7704C43.5705 51.7754 42.7503 51.0029 41.7763 51.0029Z" fill="#FF5101" stroke="#FF5101"/>
        <path d="M31.6981 60.7141C30.747 60.7141 29.9434 61.5071 29.9434 62.4816V73.1414C29.9434 74.1159 30.747 74.9089 31.6981 74.9089C32.7042 74.9089 33.4529 74.1005 33.4529 73.1414V62.4816C33.4529 61.5225 32.7042 60.7141 31.6981 60.7141Z" fill="#FF5101" stroke="#FF5101"/>
        <path d="M51.1044 51.0034C50.1549 51.0034 49.3496 51.7903 49.3496 52.7706V62.4818C49.3496 63.4617 50.1548 64.2489 51.1044 64.2489C52.0781 64.2489 52.8989 63.4771 52.8989 62.4818V52.7706C52.8989 51.7753 52.0781 51.0034 51.1044 51.0034Z" fill="#FF5101" stroke="#FF5101"/>
        <path d="M20.5133 51.0034C19.5397 51.0034 18.7188 51.7753 18.7188 52.7706V73.1416C18.7188 74.1315 19.538 74.9091 20.5133 74.9091C21.4645 74.9091 22.2681 74.1161 22.2681 73.1416V52.7706C22.2681 51.7903 21.4628 51.0034 20.5133 51.0034Z" fill="#FF5101" stroke="#FF5101"/>
        <path d="M63.081 51.0029C62.1069 51.0029 61.2871 51.7755 61.2871 52.7701V70.5318C61.2871 71.5211 62.1054 72.2989 63.081 72.2989C64.0317 72.2989 64.8364 71.5067 64.8364 70.5318V52.7701C64.8364 51.7899 64.0303 51.0029 63.081 51.0029Z" fill="#FF5101" stroke="#FF5101"/>
    </g>
    <defs>
        <clipPath id="clip0_2915_2097">
            <rect width="83" height="86" fill="white"/>
        </clipPath>
    </defs>
</svg>
