<svg width="46" height="35" viewBox="0 0 46 35" fill="none" xmlns="http://www.w3.org/2000/svg">
<path d="M11.206 31.9625C9.56867 31.9625 8.175 31.3888 7.025 30.2415C5.875 29.0945 5.3 27.7015 5.3 26.0625H2V10.0125V3.01245C2 2.21245 2.3 1.51245 2.9 0.912451C3.5 0.312451 4.2 0.0124512 5 0.0124512H33.95V8.36245H39.2L46 17.4125V26.0625H42.45C42.45 27.7015 41.877 29.0945 40.731 30.2415C39.585 31.3888 38.1933 31.9625 36.556 31.9625C34.9187 31.9625 33.525 31.3888 32.375 30.2415C31.225 29.0945 30.65 27.7015 30.65 26.0625H17.1C17.1 27.6958 16.527 29.0875 15.381 30.2375C14.235 31.3875 12.8433 31.9625 11.206 31.9625ZM11.2 28.9625C12 28.9625 12.6833 28.6791 13.25 28.1125C13.8167 27.5458 14.1 26.8625 14.1 26.0625C14.1 25.2625 13.8167 24.5791 13.25 24.0125C12.6833 23.4458 12 23.1625 11.2 23.1625C10.4 23.1625 9.71667 23.4458 9.15 24.0125C8.58333 24.5791 8.3 25.2625 8.3 26.0625C8.3 26.8625 8.58333 27.5458 9.15 28.1125C9.71667 28.6791 10.4 28.9625 11.2 28.9625ZM5 23.0625H6.1C6.66667 22.1625 7.384 21.4458 8.252 20.9125C9.12 20.3791 10.0867 20.1125 11.152 20.1125C12.2173 20.1125 13.1917 20.3875 14.075 20.9375C14.9583 21.4875 15.6833 22.1958 16.25 23.0625H30.95V3.01245H5V10.0125V23.0625ZM36.55 28.9625C37.35 28.9625 38.0333 28.6791 38.6 28.1125C39.1667 27.5458 39.45 26.8625 39.45 26.0625C39.45 25.2625 39.1667 24.5791 38.6 24.0125C38.0333 23.4458 37.35 23.1625 36.55 23.1625C35.75 23.1625 35.0667 23.4458 34.5 24.0125C33.9333 24.5791 33.65 25.2625 33.65 26.0625C33.65 26.8625 33.9333 27.5458 34.5 28.1125C35.0667 28.6791 35.75 28.9625 36.55 28.9625ZM33.95 18.7625H43.25L37.7 11.3625H33.95V18.7625Z" fill="#FF5101"/>
<path d="M15.3188 32.6955L16.025 33.3998L16.7312 32.6955L24.7062 24.7412L25.4161 24.0331L24.7062 23.3251L16.6395 15.2794L15.9333 14.575L15.2271 15.2794L13.2563 17.2451L12.5464 17.9531L13.2563 18.6612L16.2188 21.616H2H1V22.616V25.3589V26.3589H2H16.3105L13.348 29.3137L12.6381 30.0217L13.348 30.7297L15.3188 32.6955Z" fill="#FF5101" stroke="white" stroke-width="2"/>
</svg>
