<svg width="40" height="36" viewBox="0 0 40 36" fill="none" xmlns="http://www.w3.org/2000/svg">
<path d="M4.1 36V10.15L0 1.35L2.8 0L7.3 10.15H32.55L37.05 0L39.85 1.35L35.75 10.15V36H4.1ZM15.7 21.15H24.2C24.625 21.15 24.9813 21.0053 25.269 20.716C25.5563 20.427 25.7 20.0687 25.7 19.641C25.7 19.2137 25.5563 18.8583 25.269 18.575C24.9813 18.2917 24.625 18.15 24.2 18.15H15.7C15.275 18.15 14.9188 18.2947 14.6315 18.584C14.3438 18.873 14.2 19.2313 14.2 19.659C14.2 20.0863 14.3438 20.4417 14.6315 20.725C14.9188 21.0083 15.275 21.15 15.7 21.15ZM7.1 33H32.75V13.15H7.1V33Z" fill="#FF5101"/>
</svg>
