<svg width="40" height="38" viewBox="0 0 40 38" fill="none" xmlns="http://www.w3.org/2000/svg">
<path d="M6.02277 37.675C4.02277 37.675 2.43111 36.9 1.24777 35.35C0.064439 33.8 -0.277228 32.075 0.222772 30.175L3.82277 16.575C2.72277 15.875 1.81444 14.925 1.09777 13.725C0.381106 12.525 0.0227723 11.175 0.0227723 9.67495C0.0227723 7.47495 0.806106 5.59162 2.37277 4.02495C3.93944 2.45828 5.82277 1.67495 8.02277 1.67495H25.6228C26.7601 1.67495 27.6194 2.14995 28.2008 3.09995C28.7821 4.04995 28.8228 5.02495 28.3228 6.02495L23.3228 16.025C23.0438 16.525 22.6698 16.925 22.2008 17.225C21.7318 17.525 21.2058 17.675 20.6228 17.675H15.9563L15.3228 20.175H16.0228C16.4478 20.175 16.8041 20.3186 17.0918 20.606C17.3791 20.8936 17.5228 21.25 17.5228 21.675V25.675C17.5228 26.1 17.3791 26.4561 17.0918 26.7435C16.8041 27.0311 16.4478 27.175 16.0228 27.175H13.4228L11.8228 33.275C11.4561 34.575 10.7394 35.6333 9.67277 36.45C8.60611 37.2666 7.38944 37.675 6.02277 37.675ZM6.02277 34.675C6.68944 34.675 7.28944 34.475 7.82277 34.075C8.35611 33.675 8.70611 33.1416 8.87277 32.475L12.9228 17.675H6.67277L3.12277 30.925C2.85611 31.8916 3.02277 32.7583 3.62277 33.525C4.22277 34.2916 5.02277 34.675 6.02277 34.675ZM8.02277 14.675H20.6228L25.6228 4.67495H8.02277C6.62277 4.67495 5.43944 5.15829 4.47277 6.12495C3.50611 7.09162 3.02277 8.27495 3.02277 9.67495C3.02277 11.075 3.50611 12.2583 4.47277 13.225C5.43944 14.1916 6.62277 14.675 8.02277 14.675ZM32.2728 5.02495L31.4228 3.22495L37.7728 0.324951L38.5728 2.17495L32.2728 5.02495ZM37.7728 19.025L31.4228 16.175L32.2728 14.325L38.5728 17.225L37.7728 19.025ZM32.5228 10.675V8.67495H39.5228V10.675H32.5228Z" fill="#FF5101"/>
<path d="M27.9997 31.825C28.1632 31.825 28.3004 31.7697 28.4113 31.6591C28.5221 31.5485 28.5775 31.4114 28.5775 31.2478C28.5775 31.0842 28.5222 30.947 28.4116 30.8362C28.301 30.7254 28.1639 30.67 28.0003 30.67C27.8368 30.67 27.6996 30.7253 27.5887 30.8359C27.4779 30.9465 27.4225 31.0835 27.4225 31.2471C27.4225 31.4107 27.4778 31.5479 27.5884 31.6587C27.699 31.7695 27.8361 31.825 27.9997 31.825ZM27.5275 29.1475H28.5775V24.72H27.5275V29.1475ZM28.0047 35.325C27.0394 35.325 26.1323 35.1412 25.2835 34.7737C24.4345 34.4062 23.6921 33.9045 23.0563 33.2687C22.4204 32.6329 21.9187 31.8901 21.5512 31.0403C21.1837 30.1905 21 29.2824 21 28.3162C21 27.35 21.1837 26.442 21.5512 25.5922C21.9187 24.7424 22.4204 24.0025 23.0563 23.3725C23.6921 22.7425 24.4349 22.2437 25.2847 21.8762C26.1345 21.5087 27.0425 21.325 28.0087 21.325C28.975 21.325 29.883 21.5087 30.7328 21.8762C31.5826 22.2437 32.3225 22.7425 32.9525 23.3725C33.5825 24.0025 34.0813 24.7433 34.4488 25.595C34.8163 26.4466 35 27.355 35 28.3202C35 29.2855 34.8163 30.1926 34.4488 31.0415C34.0813 31.8905 33.5825 32.6318 32.9525 33.2656C32.3225 33.8992 31.5817 34.4008 30.73 34.7706C29.8783 35.1402 28.9699 35.325 28.0047 35.325Z" fill="#FF5101"/>
</svg>
