<svg width="40" height="40" viewBox="0 0 40 40" fill="none" xmlns="http://www.w3.org/2000/svg">
<rect width="40" height="40" fill="#FF5101"/>
<path d="M17.24 32L16.64 28.22C16.26 28.08 15.86 27.89 15.44 27.65C15.02 27.41 14.65 27.16 14.33 26.9L10.79 28.52L8 23.6L11.24 21.23C11.2 21.05 11.175 20.845 11.165 20.615C11.155 20.385 11.15 20.18 11.15 20C11.15 19.82 11.155 19.615 11.165 19.385C11.175 19.155 11.2 18.95 11.24 18.77L8 16.4L10.79 11.48L14.33 13.1C14.65 12.84 15.02 12.59 15.44 12.35C15.86 12.11 16.26 11.93 16.64 11.81L17.24 8H22.76L23.36 11.78C23.74 11.92 24.145 12.105 24.575 12.335C25.005 12.565 25.37 12.82 25.67 13.1L29.21 11.48L32 16.4L28.76 18.71C28.8 18.91 28.825 19.125 28.835 19.355C28.845 19.585 28.85 19.8 28.85 20C28.85 20.2 28.845 20.41 28.835 20.63C28.825 20.85 28.8 21.06 28.76 21.26L32 23.6L29.21 28.52L25.67 26.9C25.35 27.16 24.985 27.415 24.575 27.665C24.165 27.915 23.76 28.1 23.36 28.22L22.76 32H17.24ZM18.68 30.2H21.32L21.74 26.84C22.4 26.68 23.025 26.43 23.615 26.09C24.205 25.75 24.74 25.34 25.22 24.86L28.4 26.24L29.6 24.08L26.78 22.01C26.86 21.67 26.925 21.335 26.975 21.005C27.025 20.675 27.05 20.34 27.05 20C27.05 19.66 27.03 19.325 26.99 18.995C26.95 18.665 26.88 18.33 26.78 17.99L29.6 15.92L28.4 13.76L25.22 15.14C24.76 14.62 24.24 14.185 23.66 13.835C23.08 13.485 22.44 13.26 21.74 13.16L21.32 9.8H18.68L18.26 13.16C17.58 13.3 16.945 13.54 16.355 13.88C15.765 14.22 15.24 14.64 14.78 15.14L11.6 13.76L10.4 15.92L13.22 17.99C13.14 18.33 13.075 18.665 13.025 18.995C12.975 19.325 12.95 19.66 12.95 20C12.95 20.34 12.975 20.675 13.025 21.005C13.075 21.335 13.14 21.67 13.22 22.01L10.4 24.08L11.6 26.24L14.78 24.86C15.26 25.34 15.795 25.75 16.385 26.09C16.975 26.43 17.6 26.68 18.26 26.84L18.68 30.2ZM20 23.9C21.08 23.9 22 23.52 22.76 22.76C23.52 22 23.9 21.08 23.9 20C23.9 18.92 23.52 18 22.76 17.24C22 16.48 21.08 16.1 20 16.1C18.92 16.1 18 16.48 17.24 17.24C16.48 18 16.1 18.92 16.1 20C16.1 21.08 16.48 22 17.24 22.76C18 23.52 18.92 23.9 20 23.9Z" fill="white"/>
</svg>
