<svg width="24" height="24" viewBox="0 0 24 24" fill="none" xmlns="http://www.w3.org/2000/svg">
<rect width="24" height="24" rx="4" fill="#FF5101"/>
<path d="M11.3575 6.57099C9.12623 6.57099 7.3113 8.38593 7.3113 10.6161C7.3113 12.8474 9.12623 14.6623 11.3575 14.6623C13.5883 14.6623 15.4026 12.8474 15.4026 10.6161C15.4026 8.38593 13.5883 6.57099 11.3575 6.57099ZM11.3575 14.9736C8.95464 14.9736 7 13.019 7 10.6161C7 8.21379 8.95464 6.25915 11.3575 6.25915C13.7598 6.25915 15.7145 8.21379 15.7145 10.6161C15.7145 13.019 13.7598 14.9736 11.3575 14.9736Z" fill="white" stroke="white"/>
<path d="M16.8442 17.7412L16.7254 17.6862L13.6955 14.1245C13.6394 14.0591 13.6477 13.9606 13.7131 13.9051C13.7785 13.849 13.877 13.8567 13.9331 13.9227L16.9624 17.4844C17.0185 17.5504 17.0102 17.6483 16.9448 17.7038L16.8442 17.7412Z" fill="white" stroke="white"/>
</svg>
