<svg width="26" height="26" viewBox="0 0 26 26" fill="none" xmlns="http://www.w3.org/2000/svg">
<path fill-rule="evenodd" clip-rule="evenodd" d="M0 13C0 5.87097 5.81855 0 13 0C20.129 0 26 5.87097 26 13C26 20.1815 20.129 26 13 26C5.81855 26 0 20.1815 0 13ZM13.0001 5.76605C11.742 5.76605 10.7985 6.76202 10.7985 7.96767C10.7985 9.22573 11.742 10.1693 13.0001 10.1693C14.2057 10.1693 15.2017 9.22573 15.2017 7.96767C15.2017 6.76202 14.2057 5.76605 13.0001 5.76605ZM15.9356 19.0806V17.8225C15.9356 17.508 15.6211 17.1935 15.3065 17.1935H14.6775V11.9515C14.6775 11.637 14.363 11.3225 14.0485 11.3225H10.6936C10.3267 11.3225 10.0646 11.637 10.0646 11.9515V13.2096C10.0646 13.5765 10.3267 13.8386 10.6936 13.8386H11.3227V17.1935H10.6936C10.3267 17.1935 10.0646 17.508 10.0646 17.8225V19.0806C10.0646 19.4475 10.3267 19.7096 10.6936 19.7096H15.3065C15.6211 19.7096 15.9356 19.4475 15.9356 19.0806Z" fill="#37375B"/>
</svg>
